<svg width="1200" height="760" viewBox="0 0 1200 760" fill="none" xmlns="http://www.w3.org/2000/svg"><rect width="1200" height="760" rx="36" fill="#EFF6FF"/><circle cx="1050" cy="130" r="120" fill="#2563EB" fill-opacity="0.14"/><circle cx="170" cy="650" r="150" fill="#38BDF8" fill-opacity="0.12"/><rect x="92" y="92" width="1016" height="576" rx="30" fill="white" stroke="#DBEAFE"/><rect x="138" y="146" width="280" height="210" rx="24" fill="#EFF6FF" stroke="#BFDBFE"/><rect x="170" y="184" width="140" height="14" rx="7" fill="#1D4ED8"/><rect x="170" y="216" width="188" height="12" rx="6" fill="#94A3B8"/><rect x="170" y="240" width="150" height="12" rx="6" fill="#94A3B8"/><rect x="460" y="146" width="280" height="210" rx="24" fill="#EFF6FF" stroke="#BFDBFE"/><rect x="492" y="184" width="140" height="14" rx="7" fill="#1D4ED8"/><rect x="492" y="216" width="188" height="12" rx="6" fill="#94A3B8"/><rect x="492" y="240" width="150" height="12" rx="6" fill="#94A3B8"/><rect x="782" y="146" width="280" height="210" rx="24" fill="#EFF6FF" stroke="#BFDBFE"/><rect x="814" y="184" width="140" height="14" rx="7" fill="#1D4ED8"/><rect x="814" y="216" width="188" height="12" rx="6" fill="#94A3B8"/><rect x="814" y="240" width="150" height="12" rx="6" fill="#94A3B8"/><rect x="138" y="404" width="924" height="208" rx="26" fill="#0F172A"/><rect x="186" y="454" width="180" height="14" rx="7" fill="#93C5FD"/><rect x="186" y="488" width="320" height="12" rx="6" fill="#334155"/><rect x="186" y="512" width="284" height="12" rx="6" fill="#334155"/><rect x="810" y="446" width="176" height="42" rx="14" fill="#2563EB"/></svg>