<svg width="1200" height="760" viewBox="0 0 1200 760" fill="none" xmlns="http://www.w3.org/2000/svg"><rect width="1200" height="760" rx="36" fill="#F0FDF4"/><circle cx="1060" cy="120" r="120" fill="#16A34A" fill-opacity="0.14"/><circle cx="150" cy="650" r="150" fill="#4ADE80" fill-opacity="0.12"/><rect x="92" y="92" width="1016" height="576" rx="30" fill="white" stroke="#DCFCE7"/><path d="M244 218C282 180 330 170 372 170C446 170 472 238 548 238C626 238 658 160 738 160C812 160 832 216 908 216C962 216 998 192 1040 154" stroke="#16A34A" stroke-width="12" stroke-linecap="round"/><circle cx="244" cy="218" r="12" fill="#16A34A"/><circle cx="372" cy="170" r="12" fill="#16A34A"/><circle cx="548" cy="238" r="12" fill="#16A34A"/><circle cx="738" cy="160" r="12" fill="#16A34A"/><circle cx="908" cy="216" r="12" fill="#16A34A"/><circle cx="1040" cy="154" r="12" fill="#16A34A"/><rect x="140" y="350" width="260" height="184" rx="24" fill="#ECFDF5" stroke="#BBF7D0"/><rect x="176" y="388" width="138" height="14" rx="7" fill="#15803D"/><rect x="176" y="420" width="184" height="12" rx="6" fill="#94A3B8"/><rect x="176" y="444" width="152" height="12" rx="6" fill="#94A3B8"/><rect x="470" y="350" width="260" height="184" rx="24" fill="#ECFDF5" stroke="#BBF7D0"/><rect x="506" y="388" width="138" height="14" rx="7" fill="#15803D"/><rect x="506" y="420" width="184" height="12" rx="6" fill="#94A3B8"/><rect x="506" y="444" width="152" height="12" rx="6" fill="#94A3B8"/><rect x="800" y="350" width="260" height="184" rx="24" fill="#ECFDF5" stroke="#BBF7D0"/><rect x="836" y="388" width="138" height="14" rx="7" fill="#15803D"/><rect x="836" y="420" width="184" height="12" rx="6" fill="#94A3B8"/><rect x="836" y="444" width="152" height="12" rx="6" fill="#94A3B8"/></svg>