<svg width="1200" height="720" viewBox="0 0 1200 720" fill="none" xmlns="http://www.w3.org/2000/svg"><rect width="1200" height="720" rx="36" fill="#FFF7ED"/><rect x="92" y="92" width="1016" height="536" rx="30" fill="white" stroke="#FED7AA"/><rect x="144" y="144" width="340" height="392" rx="24" fill="#111827"/><rect x="184" y="188" width="144" height="14" rx="7" fill="#FED7AA"/><rect x="184" y="220" width="216" height="12" rx="6" fill="#374151"/><rect x="184" y="244" width="190" height="12" rx="6" fill="#374151"/><rect x="548" y="144" width="510" height="170" rx="24" fill="#FFF7ED" stroke="#FDBA74"/><rect x="590" y="190" width="176" height="14" rx="7" fill="#EA580C"/><rect x="590" y="224" width="310" height="12" rx="6" fill="#C4B5FD" opacity="0.45"/><rect x="590" y="248" width="260" height="12" rx="6" fill="#C4B5FD" opacity="0.45"/><rect x="548" y="364" width="510" height="144" rx="24" fill="#F8FAFC" stroke="#E5E7EB"/><rect x="590" y="404" width="160" height="14" rx="7" fill="#0F172A"/><rect x="590" y="438" width="238" height="12" rx="6" fill="#94A3B8"/><rect x="590" y="462" width="194" height="12" rx="6" fill="#94A3B8"/><rect x="590" y="500" width="150" height="40" rx="12" fill="#EA580C"/></svg>