<svg width="1200" height="760" viewBox="0 0 1200 760" fill="none" xmlns="http://www.w3.org/2000/svg"><rect width="1200" height="760" rx="36" fill="#FFF7ED"/><circle cx="1080" cy="120" r="120" fill="#F97316" fill-opacity="0.14"/><circle cx="140" cy="650" r="150" fill="#FDBA74" fill-opacity="0.16"/><rect x="92" y="92" width="1016" height="576" rx="30" fill="white" stroke="#FED7AA"/><rect x="144" y="146" width="300" height="210" rx="24" fill="#FFF7ED" stroke="#FDBA74"/><rect x="176" y="184" width="148" height="14" rx="7" fill="#EA580C" fill-opacity="0.2"/><rect x="176" y="216" width="200" height="12" rx="6" fill="#C4B5FD" opacity="0.45"/><rect x="176" y="240" width="168" height="12" rx="6" fill="#C4B5FD" opacity="0.45"/><rect x="474" y="146" width="300" height="210" rx="24" fill="#FFF7ED" stroke="#FDBA74"/><rect x="506" y="184" width="148" height="14" rx="7" fill="#EA580C" fill-opacity="0.2"/><rect x="506" y="216" width="200" height="12" rx="6" fill="#C4B5FD" opacity="0.45"/><rect x="506" y="240" width="168" height="12" rx="6" fill="#C4B5FD" opacity="0.45"/><rect x="804" y="146" width="260" height="210" rx="24" fill="#111827"/><rect x="840" y="184" width="126" height="14" rx="7" fill="#FED7AA"/><rect x="840" y="216" width="170" height="12" rx="6" fill="#374151"/><rect x="840" y="240" width="146" height="12" rx="6" fill="#374151"/><rect x="144" y="410" width="920" height="204" rx="24" fill="#FFF7ED" stroke="#FED7AA"/><path d="M216 544L286 486L356 520L442 448L552 500L656 438" stroke="#EA580C" stroke-width="10" stroke-linecap="round" stroke-linejoin="round"/><circle cx="216" cy="544" r="10" fill="#EA580C"/><circle cx="286" cy="486" r="10" fill="#EA580C"/><circle cx="356" cy="520" r="10" fill="#EA580C"/><circle cx="442" cy="448" r="10" fill="#EA580C"/><circle cx="552" cy="500" r="10" fill="#EA580C"/><circle cx="656" cy="438" r="10" fill="#EA580C"/><rect x="764" y="456" width="232" height="44" rx="14" fill="#EA580C"/></svg>