<svg width="1200" height="720" viewBox="0 0 1200 720" fill="none" xmlns="http://www.w3.org/2000/svg"><rect width="1200" height="720" rx="36" fill="#F8FAFC"/><rect x="92" y="92" width="1016" height="536" rx="30" fill="white" stroke="#E2E8F0"/><rect x="144" y="146" width="330" height="430" rx="24" fill="#0F172A"/><rect x="184" y="196" width="140" height="14" rx="7" fill="#93C5FD"/><rect x="184" y="228" width="210" height="12" rx="6" fill="#334155"/><rect x="184" y="252" width="182" height="12" rx="6" fill="#334155"/><rect x="548" y="146" width="510" height="180" rx="24" fill="#EFF6FF" stroke="#BFDBFE"/><rect x="590" y="192" width="174" height="14" rx="7" fill="#1D4ED8"/><rect x="590" y="226" width="300" height="12" rx="6" fill="#94A3B8"/><rect x="590" y="250" width="248" height="12" rx="6" fill="#94A3B8"/><rect x="548" y="370" width="510" height="160" rx="24" fill="#F8FAFC" stroke="#E2E8F0"/><path d="M616 474L696 424L760 450L846 392L948 432" stroke="#2563EB" stroke-width="10" stroke-linecap="round" stroke-linejoin="round"/><circle cx="616" cy="474" r="10" fill="#2563EB"/><circle cx="696" cy="424" r="10" fill="#2563EB"/><circle cx="760" cy="450" r="10" fill="#2563EB"/><circle cx="846" cy="392" r="10" fill="#2563EB"/><circle cx="948" cy="432" r="10" fill="#2563EB"/></svg>